<svg version="1.0" xmlns="http://www.w3.org/2000/svg"  width="180px" height="180px" viewBox="0 0 180 180">
  <g transform="translate(0,180) scale(0.1,-0.1)" fill="#ff3700" stroke="none">
    <path d="M5 1788 c-3 -7 -4 -411 -3 -898 l3 -885 895 0 895 0 0 895 0 895
    -893 3 c-709 2 -894 0 -897 -10z m1728 -58 c4 0 6 -375 5 -832 l-3 -833 -830
    0 -830 0 -3 825 c-1 454 0 830 2 835 3 8 937 11 1659 5z"/>
    <path d="M1150 1565 l0 -35 188 -2 187 -3 3 -162 2 -163 35 0 35 0 0 200 0
    200 -225 0 -225 0 0 -35z"/>
    <path d="M470 900 l0 -450 50 0 50 0 0 377 0 378 165 -165 165 -165 163 163
    c89 89 166 162 170 162 4 0 7 -169 7 -375 l0 -375 45 0 45 0 0 450 0 450 -48
    0 -47 0 -165 -165 -165 -165 -165 165 -165 165 -53 0 -52 0 0 -450z"/>
    <path d="M200 400 l0 -200 225 0 225 0 0 35 0 35 -185 0 c-184 0 -185 0 -190
    23 -4 12 -5 87 -3 165 l3 142 -37 0 -38 0 0 -200z"/>
  </g>
</svg>