<svg xmlns="http://www.w3.org/2000/svg" width="18" height="18" style=""><rect id="backgroundrect" width="100%" height="100%" x="0" y="0" fill="none" stroke="none"/>
<g class="currentLayer" style=""><title>Layer 1</title><path d="M17.013878107070923,8.5 C17.013878107070923,8.2238576 17.23773570707092,8 17.513878107070923,8 C17.790020507070924,8 18.013878107070923,8.2238576 18.013878107070923,8.5 L18.013878107070923,15.500005699999999 C18.013878107070923,16.8807175 16.894590007070924,18.0000057 15.513878107070923,18.0000057 L2.499999917070923,18.0000057 C1.1192880470709232,18.0000057 -8.292907693885354e-8,16.8807175 -8.292907693885354e-8,15.500005699999999 L-8.292907693885354e-8,2.5 C-8.292907693885354e-8,1.1192881300000002 1.1192880470709232,0 2.499999917070923,0 L9.513878107070923,0 C9.790020507070922,0 10.013878107070923,0.22385762999999992 10.013878107070923,0.5 C10.013878107070923,0.7761423700000001 9.790020507070922,1 9.513878107070923,1 L2.499999917070923,1 C1.6715727970709233,1 0.9999999170709231,1.6715728800000003 0.9999999170709231,2.5 L0.9999999170709231,15.500005699999999 C0.9999999170709231,16.3284328 1.6715727970709233,17.0000057 2.499999917070923,17.0000057 L15.513878107070923,17.0000057 C16.342305207070922,17.0000057 17.013878107070923,16.3284328 17.013878107070923,15.500005699999999 L17.013878107070923,8.5 zM15.867431507070922,0.14644660999999992 L17.867431507070922,2.14644661 C18.062693607070923,2.3417087600000004 18.062693607070923,2.6582912400000005 17.867431507070922,2.85355339 L9.867431507070922,10.8535534 C9.773663307070922,10.9473216 9.646486307070923,11 9.513878107070923,11 L7.513878107070923,11 C7.237735707070923,11 7.013878107070923,10.7761424 7.013878107070923,10.5 L7.013878107070923,8.5 C7.013878107070923,8.3673918 7.066556507070922,8.2402148 7.160324707070924,8.1464466 L15.160324707070924,0.14644660999999992 C15.355586907070922,-0.0488155400000001 15.672169307070924,-0.0488155400000001 15.867431507070922,0.14644660999999992 zM15.513878107070923,1.2071067800000002 L8.013878107070923,8.7071068 L8.013878107070923,10 L9.306771307070923,10 L16.806771307070925,2.5 L15.513878107070923,1.2071067800000002 z" id="svg_1" class="selected" stroke-dasharray="2,2" fill="#6d6d6d" fill-opacity="1"/></g></svg>