<svg width="148" height="37" viewBox="0 0 148 37" fill="none" xmlns="http://www.w3.org/2000/svg">
<path d="M2.87642 9.81818V36H6.63494V17.0412H6.87784L14.5994 35.9616H17.7188L25.4403 17.054H25.6832V36H29.4418V9.81818H24.6477L16.3125 30.1705H16.0057L7.67045 9.81818H2.87642ZM44.0092 36.3963C48.2919 36.3963 51.3217 34.2869 52.1911 31.0909L48.5732 30.4389C47.8828 32.2926 46.2209 33.2386 44.0476 33.2386C40.7749 33.2386 38.576 31.1165 38.4737 27.3324H52.434V25.9773C52.434 18.8821 48.1896 16.108 43.7408 16.108C38.2692 16.108 34.6641 20.2756 34.6641 26.3097C34.6641 32.4077 38.218 36.3963 44.0092 36.3963ZM38.4865 24.4688C38.6399 21.6818 40.6598 19.2656 43.7663 19.2656C46.7322 19.2656 48.6754 21.4645 48.6882 24.4688H38.4865ZM71.3896 21.1577C70.5969 18.1023 68.2063 16.108 63.962 16.108C59.5259 16.108 56.381 18.4474 56.381 21.9247C56.381 24.7116 58.0685 26.5653 61.7504 27.3835L65.0742 28.1122C66.9663 28.5341 67.8484 29.3778 67.8484 30.6051C67.8484 32.1264 66.2248 33.3153 63.7191 33.3153C61.4308 33.3153 59.9606 32.331 59.5004 30.4006L55.8058 30.9631C56.445 34.4403 59.3342 36.3963 63.7447 36.3963C68.4876 36.3963 71.7731 33.8778 71.7731 30.3239C71.7731 27.5497 70.0089 25.8366 66.4038 25.0057L63.2844 24.2898C61.1239 23.7784 60.1907 23.0497 60.2035 21.7202C60.1907 20.2116 61.8271 19.1378 64.0004 19.1378C66.3782 19.1378 67.4776 20.4545 67.9251 21.7713L71.3896 21.1577ZM85.142 16.3636H81.1151V11.6591H77.2926V16.3636H74.4162V19.4318H77.2926V31.027C77.2798 34.5938 80.0028 36.3196 83.0199 36.2557C84.2344 36.2429 85.0526 36.0128 85.5 35.8466L84.8097 32.6889C84.554 32.7401 84.081 32.8551 83.4673 32.8551C82.2273 32.8551 81.1151 32.446 81.1151 30.2344V19.4318H85.142V16.3636ZM97.4308 36.3963C102.966 36.3963 106.584 32.3438 106.584 26.2713C106.584 20.1605 102.966 16.108 97.4308 16.108C91.8952 16.108 88.2773 20.1605 88.2773 26.2713C88.2773 32.3438 91.8952 36.3963 97.4308 36.3963ZM97.4435 33.1875C93.8256 33.1875 92.1381 30.0298 92.1381 26.2585C92.1381 22.5 93.8256 19.304 97.4435 19.304C101.036 19.304 102.723 22.5 102.723 26.2585C102.723 30.0298 101.036 33.1875 97.4435 33.1875Z" fill="white"/>
</svg>